M48
;Layer_Color=9474304
;FILE_FORMAT=4:4
METRIC,LZ
;TYPE=PLATED
T1F00S00C0.6500
T2F00S00C0.7112
T3F00S00C0.9000
T4F00S00C1.1000
T5F00S00C1.4000
T6F00S00C3.2004
;TYPE=NON_PLATED
T7F00S00C1.7800
%
T01
X0060452Y0078508
Y0085068
T02
X008001Y006858
X0074041Y0080264
X0079121Y0089662
X0082296
X0080772Y0080264
T03
X008382Y006604
X008636
X007874
X00762
T04
X0069596Y0084328
Y0086868
Y0091694
Y0094234
T05
X006096Y006858
Y007366
Y0089916
Y0094996
T06
X010668Y00635
X005588
Y01016
X010668
T07
X0107265Y0089615
M30
