G04*
G04 #@! TF.GenerationSoftware,Altium Limited,Altium Designer,22.5.1 (42)*
G04*
G04 Layer_Physical_Order=1*
G04 Layer_Color=255*
%FSLAX44Y44*%
%MOMM*%
G71*
G04*
G04 #@! TF.SameCoordinates,9287F655-407D-451B-87FD-3B832B0CA67E*
G04*
G04*
G04 #@! TF.FilePolarity,Positive*
G04*
G01*
G75*
%ADD13C,0.2540*%
%ADD17R,4.0600X3.3000*%
%ADD18R,6.3500X3.8100*%
%ADD19R,6.3500X3.3000*%
%ADD20R,0.9581X0.9121*%
%ADD21R,0.6041X0.5582*%
%ADD22R,1.2700X0.6350*%
%ADD23R,2.0000X2.0000*%
%ADD24R,1.3000X0.7000*%
%ADD25R,1.1557X1.4082*%
%ADD26R,2.8000X1.4000*%
%ADD27R,0.5582X0.6041*%
%ADD28R,1.4000X0.4000*%
%ADD29R,1.9000X2.3000*%
%ADD30R,1.9000X1.8000*%
%ADD38C,1.7800*%
%ADD41R,1.1500X1.1500*%
%ADD42C,1.1500*%
%ADD49R,1.4000X1.4000*%
%ADD50C,1.4000*%
%ADD51R,2.1000X2.1000*%
%ADD52C,2.1000*%
%ADD53C,1.6500*%
%ADD54R,1.6500X1.6500*%
%ADD55C,1.5240*%
%ADD56C,1.2700*%
D13*
X746978Y619760D02*
X1016000D01*
X745490Y621248D02*
X746978Y619760D01*
X745490Y621248D02*
Y670592D01*
X758705Y683807D01*
X762000Y831661D02*
Y900241D01*
X758705Y736600D02*
Y737171D01*
Y683807D02*
Y736600D01*
X948690Y696602D02*
Y793750D01*
X985738Y830798D01*
X1033998D01*
X948690Y696602D02*
X964880Y680412D01*
X1033998Y830798D02*
X1041400Y838200D01*
X964880Y660400D02*
Y680412D01*
X779741Y706159D02*
X800100Y685800D01*
X787400Y645160D02*
Y673100D01*
X779741Y706159D02*
Y821690D01*
X787400Y673100D02*
X800100Y685800D01*
X787400Y645160D02*
X802640Y629920D01*
X862112D02*
X863600Y631408D01*
X802640Y629920D02*
X862112D01*
X863600Y631408D02*
Y660400D01*
X703888Y793115D02*
X706120Y790883D01*
X697865Y793115D02*
X703888D01*
X695960Y795020D02*
X697865Y793115D01*
X706120Y789940D02*
X711200Y784860D01*
X652780Y807720D02*
X664210Y819150D01*
X731520D01*
X739576Y803474D02*
X740410Y802640D01*
X739576Y803474D02*
Y811094D01*
X731520Y819150D02*
X739576Y811094D01*
X642840Y785080D02*
X652780Y795020D01*
Y807720D01*
X604520Y785080D02*
X642840D01*
X603687Y784247D02*
X604520Y785080D01*
X596274Y767080D02*
X633512D01*
X596913Y784247D02*
X603687D01*
X589062Y774292D02*
Y776396D01*
X596913Y784247D01*
X589062Y774292D02*
X596274Y767080D01*
X575310Y868680D02*
X695960D01*
X562610Y748030D02*
Y855980D01*
X575310Y868680D01*
X629920Y949960D02*
X665480Y914400D01*
X693420D02*
X695960Y916940D01*
X665480Y914400D02*
X693420D01*
X609600Y949960D02*
X629920D01*
X772200Y746800D02*
Y821690D01*
X763214Y741680D02*
X767080D01*
X772200Y746800D01*
X711200Y738088D02*
Y784860D01*
X706120Y789940D02*
Y790883D01*
X675640Y771833D02*
X688032Y784225D01*
X694055D01*
X695960Y786130D01*
X562610Y748030D02*
X574040Y736600D01*
X609600D01*
X675640Y688340D02*
Y771833D01*
X643890Y681990D02*
X669290D01*
X675640Y688340D01*
X633512Y767080D02*
X635000Y765592D01*
Y690880D02*
X643890Y681990D01*
X635000Y690880D02*
Y765592D01*
X645160Y650240D02*
X702310D01*
X713390Y661320D01*
Y680720D01*
X609600Y685800D02*
X645160Y650240D01*
X795020Y821690D02*
X806450Y833120D01*
Y934720D02*
X816610Y944880D01*
X806450Y833120D02*
Y934720D01*
X847090Y944880D02*
X858432Y933538D01*
X816610Y944880D02*
X847090D01*
X858432Y925388D02*
Y933538D01*
Y925388D02*
X859920Y923900D01*
X854032Y914400D02*
X883920D01*
X849610Y909978D02*
X854032Y914400D01*
X849610Y898108D02*
Y909978D01*
X848122Y896620D02*
X849610Y898108D01*
X822960Y896620D02*
X848122D01*
X779741Y821690D02*
X795020D01*
X807720Y802640D02*
X839470D01*
X859920Y823090D01*
Y904900D01*
X762000Y929422D02*
X788888Y956310D01*
X879134Y926130D02*
Y930616D01*
X788888Y956310D02*
X853440D01*
X879134Y930616D01*
Y926130D02*
X881364Y923900D01*
X883920D01*
X1016000Y619760D02*
X1052210Y655970D01*
Y735112D01*
X964560Y706120D02*
X999490D01*
X1003970Y710600D02*
X1041400D01*
X999490Y706120D02*
X1003970Y710600D01*
X763521Y898720D02*
X763750D01*
X765850Y896620D02*
X791210D01*
X762000Y900241D02*
Y900470D01*
Y900241D02*
X763521Y898720D01*
X763750D02*
X765850Y896620D01*
X762000Y908240D02*
Y929422D01*
X771971Y821690D02*
X772200D01*
X762000Y831661D02*
X771971Y821690D01*
X758705Y737171D02*
X763214Y741680D01*
X712688Y736600D02*
X741680D01*
X711200Y738088D02*
X712688Y736600D01*
X1050722D02*
X1052210Y735112D01*
X1041400Y736600D02*
X1050722D01*
X882432Y741680D02*
X883920Y743168D01*
Y904900D01*
X831200Y747020D02*
X838200D01*
X695960Y683610D02*
Y777240D01*
Y683610D02*
X698850Y680720D01*
X843540Y741680D02*
X882432D01*
X838200Y747020D02*
X843540Y741680D01*
X762000Y908011D02*
Y908240D01*
X750760Y919480D02*
X762000Y908240D01*
X695960Y916940D02*
X698500Y919480D01*
X750760D01*
X695960Y868680D02*
Y916940D01*
X616768Y738773D02*
X616853D01*
X924560Y660720D02*
Y706120D01*
Y660720D02*
X924880Y660400D01*
X863600D02*
X924880D01*
X838200D02*
Y716020D01*
X739140Y998218D02*
X744218D01*
X741679D01*
Y1013453D01*
X739140Y1010914D01*
X751836Y998218D02*
X759453D01*
X761993Y1000758D01*
X759453Y1003297D01*
X754375D01*
X751836Y1005836D01*
X754375Y1008375D01*
X761993D01*
X769610Y1010914D02*
Y1008375D01*
X767071D01*
X772149D01*
X769610D01*
Y1000758D01*
X772149Y998218D01*
X795002D02*
Y1013453D01*
X802619D01*
X805159Y1010914D01*
Y1005836D01*
X802619Y1003297D01*
X795002D01*
X810237Y1008375D02*
Y998218D01*
Y1003297D01*
X812776Y1005836D01*
X815315Y1008375D01*
X817855D01*
X828011Y998218D02*
X833090D01*
X835629Y1000758D01*
Y1005836D01*
X833090Y1008375D01*
X828011D01*
X825472Y1005836D01*
Y1000758D01*
X828011Y998218D01*
X840707Y993140D02*
X843246D01*
X845786Y995679D01*
Y1008375D01*
X863560Y998218D02*
X858481D01*
X855942Y1000758D01*
Y1005836D01*
X858481Y1008375D01*
X863560D01*
X866099Y1005836D01*
Y1003297D01*
X855942D01*
X881334Y1008375D02*
X873717D01*
X871177Y1005836D01*
Y1000758D01*
X873717Y998218D01*
X881334D01*
X888951Y1010914D02*
Y1008375D01*
X886412D01*
X891491D01*
X888951D01*
Y1000758D01*
X891491Y998218D01*
D17*
X943650Y903750D02*
D03*
D18*
X1035050Y831850D02*
D03*
D19*
Y964750D02*
D03*
D20*
X713390Y680720D02*
D03*
X698850D02*
D03*
D21*
X779741Y821690D02*
D03*
X772200D02*
D03*
D22*
X695960Y777240D02*
D03*
Y786130D02*
D03*
Y795020D02*
D03*
D23*
X964560Y706120D02*
D03*
X924560D02*
D03*
X964880Y660400D02*
D03*
X924880D02*
D03*
D24*
X859920Y904900D02*
D03*
Y923900D02*
D03*
X883920D02*
D03*
Y914400D02*
D03*
Y904900D02*
D03*
D25*
X758705Y736600D02*
D03*
X741680D02*
D03*
D26*
X838200Y716020D02*
D03*
Y747020D02*
D03*
D27*
X762000Y900470D02*
D03*
Y908011D02*
D03*
D28*
X1041400Y710600D02*
D03*
Y717100D02*
D03*
Y723600D02*
D03*
Y730100D02*
D03*
Y736600D02*
D03*
D29*
X1069900Y686100D02*
D03*
Y761100D02*
D03*
D30*
Y712100D02*
D03*
Y735100D02*
D03*
D38*
X1072650Y896150D02*
D03*
D41*
X604520Y850680D02*
D03*
D42*
Y785080D02*
D03*
D49*
X863600Y660400D02*
D03*
X787400D02*
D03*
D50*
X838200D02*
D03*
X762000D02*
D03*
D51*
X609600Y899160D02*
D03*
Y685800D02*
D03*
D52*
Y949960D02*
D03*
Y736600D02*
D03*
D53*
X695960Y868680D02*
D03*
Y916940D02*
D03*
D54*
Y843280D02*
D03*
Y942340D02*
D03*
D55*
X1066800Y635000D02*
D03*
X558800Y1016000D02*
D03*
X1066800D02*
D03*
X558800Y635000D02*
D03*
D56*
X800100Y685800D02*
D03*
X822960Y896620D02*
D03*
X791210D02*
D03*
X807720Y802640D02*
D03*
X740410D02*
D03*
M02*
