G04*
G04 #@! TF.GenerationSoftware,Altium Limited,Altium Designer,22.5.1 (42)*
G04*
G04 Layer_Physical_Order=2*
G04 Layer_Color=16711680*
%FSLAX44Y44*%
%MOMM*%
G71*
G04*
G04 #@! TF.SameCoordinates,9287F655-407D-451B-87FD-3B832B0CA67E*
G04*
G04*
G04 #@! TF.FilePolarity,Positive*
G04*
G01*
G75*
%ADD13C,0.2540*%
%ADD38C,1.7800*%
%ADD41R,1.1500X1.1500*%
%ADD42C,1.1500*%
%ADD49R,1.4000X1.4000*%
%ADD50C,1.4000*%
%ADD51R,2.1000X2.1000*%
%ADD52C,2.1000*%
%ADD53C,1.6500*%
%ADD54R,1.6500X1.6500*%
%ADD55C,1.5240*%
%ADD56C,1.2700*%
G36*
X1073022Y1034697D02*
X1071752Y1033920D01*
X1068626Y1034542D01*
X1064974D01*
X1061392Y1033829D01*
X1058017Y1032432D01*
X1054980Y1030403D01*
X1052398Y1027820D01*
X1050368Y1024783D01*
X1048971Y1021408D01*
X1048258Y1017826D01*
Y1014174D01*
X1048971Y1010592D01*
X1050368Y1007217D01*
X1052398Y1004180D01*
X1054980Y1001598D01*
X1058017Y999568D01*
X1061392Y998171D01*
X1064974Y997458D01*
X1068626D01*
X1071752Y998080D01*
X1073022Y997303D01*
Y907590D01*
X1071144D01*
X1068234Y906811D01*
X1065626Y905304D01*
X1063496Y903174D01*
X1061990Y900566D01*
X1061210Y897656D01*
Y894644D01*
X1061990Y891734D01*
X1063496Y889126D01*
X1065626Y886996D01*
X1068234Y885490D01*
X1071144Y884710D01*
X1073022D01*
Y653697D01*
X1071752Y652920D01*
X1068626Y653542D01*
X1064974D01*
X1061392Y652829D01*
X1058017Y651432D01*
X1054980Y649402D01*
X1052398Y646820D01*
X1050368Y643783D01*
X1048971Y640408D01*
X1048258Y636826D01*
Y633174D01*
X1048971Y629591D01*
X1050368Y626217D01*
X1052398Y623180D01*
X1054980Y620597D01*
X1058017Y618568D01*
X1061092Y617295D01*
X1060839Y616025D01*
X564761D01*
X564508Y617295D01*
X567583Y618568D01*
X570620Y620597D01*
X573203Y623180D01*
X575232Y626217D01*
X576629Y629591D01*
X577342Y633174D01*
Y636826D01*
X576629Y640408D01*
X575232Y643783D01*
X573203Y646820D01*
X570620Y649402D01*
X567583Y651432D01*
X564208Y652829D01*
X560626Y653542D01*
X556974D01*
X553391Y652829D01*
X551161Y651906D01*
X550105Y652611D01*
Y998389D01*
X551161Y999094D01*
X553391Y998171D01*
X556974Y997458D01*
X560626D01*
X564208Y998171D01*
X567583Y999568D01*
X570620Y1001598D01*
X573203Y1004180D01*
X575232Y1007217D01*
X576629Y1010592D01*
X577342Y1014174D01*
Y1017826D01*
X576629Y1021408D01*
X575232Y1024783D01*
X573203Y1027820D01*
X570620Y1030403D01*
X567583Y1032432D01*
X564208Y1033829D01*
X560626Y1034542D01*
X556974D01*
X553391Y1033829D01*
X551161Y1032906D01*
X550105Y1033611D01*
Y1041077D01*
X550239Y1041400D01*
X1073022D01*
Y1034697D01*
D02*
G37*
%LPC*%
G36*
X867394Y1018019D02*
X758206D01*
Y962660D01*
X867394D01*
Y1018019D01*
D02*
G37*
G36*
X611317Y963000D02*
X607883D01*
X604567Y962111D01*
X601593Y960395D01*
X599165Y957967D01*
X597449Y954993D01*
X596560Y951677D01*
Y948243D01*
X597449Y944927D01*
X599165Y941953D01*
X601593Y939525D01*
X604567Y937809D01*
X607883Y936920D01*
X611317D01*
X614633Y937809D01*
X617607Y939525D01*
X620035Y941953D01*
X621751Y944927D01*
X622640Y948243D01*
Y951677D01*
X621751Y954993D01*
X620035Y957967D01*
X617607Y960395D01*
X614633Y962111D01*
X611317Y963000D01*
D02*
G37*
G36*
X694690Y953130D02*
X685170D01*
Y946225D01*
X675702D01*
X674215Y945929D01*
X672955Y945087D01*
X630913Y903045D01*
X622640D01*
Y912200D01*
X610870D01*
Y899160D01*
X609600D01*
Y897890D01*
X596560D01*
Y886120D01*
X600635D01*
Y858970D01*
X596230D01*
Y851950D01*
X604520D01*
Y850680D01*
X605790D01*
Y842390D01*
X612810D01*
Y848285D01*
X642166D01*
X653728Y836723D01*
X654988Y835881D01*
X656475Y835585D01*
X685170D01*
Y832490D01*
X692075D01*
Y829385D01*
X656590D01*
X655103Y829089D01*
X653843Y828247D01*
X643683Y818087D01*
X642841Y816827D01*
X642545Y815340D01*
Y692489D01*
X635931Y685875D01*
X622640D01*
Y698840D01*
X610870D01*
Y685800D01*
Y672760D01*
X622640D01*
Y678105D01*
X637540D01*
X639027Y678401D01*
X640287Y679243D01*
X649177Y688133D01*
X650019Y689393D01*
X650315Y690880D01*
Y813731D01*
X658199Y821615D01*
X694472D01*
X695959Y821911D01*
X697219Y822753D01*
X698707Y824241D01*
X699549Y825501D01*
X699845Y826988D01*
Y832490D01*
X706750D01*
Y842010D01*
X695960D01*
Y843280D01*
X694690D01*
Y854070D01*
X685170D01*
Y843355D01*
X658084D01*
X646521Y854917D01*
X645261Y855759D01*
X643774Y856055D01*
X612810D01*
Y858970D01*
X608405D01*
Y886120D01*
X622640D01*
Y895275D01*
X632522D01*
X634008Y895571D01*
X635268Y896413D01*
X677311Y938455D01*
X685170D01*
Y931550D01*
X694690D01*
Y942340D01*
Y953130D01*
D02*
G37*
G36*
X697381Y927730D02*
X694539D01*
X691795Y926995D01*
X689335Y925574D01*
X687326Y923565D01*
X685905Y921105D01*
X685170Y918361D01*
Y915519D01*
X685905Y912775D01*
X687326Y910315D01*
X689335Y908306D01*
X691795Y906885D01*
X694539Y906150D01*
X697381D01*
X700125Y906885D01*
X702585Y908306D01*
X704594Y910315D01*
X706015Y912775D01*
X706750Y915519D01*
Y918361D01*
X706015Y921105D01*
X704594Y923565D01*
X702585Y925574D01*
X700125Y926995D01*
X697381Y927730D01*
D02*
G37*
G36*
X706750Y953130D02*
X697230D01*
Y942340D01*
Y931550D01*
X706750D01*
Y940995D01*
X804841D01*
X812725Y933111D01*
Y900505D01*
X799232D01*
X798324Y902079D01*
X796669Y903734D01*
X794641Y904904D01*
X792480Y905483D01*
Y896620D01*
Y887757D01*
X794641Y888336D01*
X796669Y889506D01*
X798324Y891161D01*
X799232Y892735D01*
X814938D01*
X815846Y891161D01*
X817501Y889506D01*
X819529Y888336D01*
X821690Y887757D01*
Y896620D01*
Y905483D01*
X821502Y905433D01*
X820495Y906206D01*
Y934720D01*
X820199Y936207D01*
X819357Y937467D01*
X809197Y947627D01*
X807937Y948469D01*
X806450Y948765D01*
X706750D01*
Y953130D01*
D02*
G37*
G36*
X608330Y912200D02*
X596560D01*
Y900430D01*
X608330D01*
Y912200D01*
D02*
G37*
G36*
X824230Y905483D02*
Y897890D01*
X831823D01*
X831244Y900051D01*
X830074Y902079D01*
X828419Y903734D01*
X826391Y904904D01*
X824230Y905483D01*
D02*
G37*
G36*
X789940D02*
X787779Y904904D01*
X785751Y903734D01*
X784096Y902079D01*
X782926Y900051D01*
X782347Y897890D01*
X789940D01*
Y905483D01*
D02*
G37*
G36*
X831823Y895350D02*
X824230D01*
Y887757D01*
X826391Y888336D01*
X828419Y889506D01*
X830074Y891161D01*
X831244Y893189D01*
X831823Y895350D01*
D02*
G37*
G36*
X789940D02*
X782347D01*
X782926Y893189D01*
X784096Y891161D01*
X785751Y889506D01*
X787779Y888336D01*
X789940Y887757D01*
Y895350D01*
D02*
G37*
G36*
X697381Y879470D02*
X694539D01*
X691795Y878735D01*
X689335Y877314D01*
X687326Y875305D01*
X685905Y872845D01*
X685170Y870100D01*
Y867260D01*
X685905Y864515D01*
X687326Y862055D01*
X689335Y860046D01*
X691795Y858625D01*
X694539Y857890D01*
X697381D01*
X700125Y858625D01*
X702585Y860046D01*
X704594Y862055D01*
X706015Y864515D01*
X706750Y867260D01*
Y870100D01*
X706015Y872845D01*
X704594Y875305D01*
X702585Y877314D01*
X700125Y878735D01*
X697381Y879470D01*
D02*
G37*
G36*
X706750Y854070D02*
X697230D01*
Y844550D01*
X706750D01*
Y854070D01*
D02*
G37*
G36*
X603250Y849410D02*
X596230D01*
Y842390D01*
X603250D01*
Y849410D01*
D02*
G37*
G36*
X808890Y811530D02*
X806550D01*
X804289Y810924D01*
X802261Y809754D01*
X800606Y808099D01*
X799697Y806525D01*
X748432D01*
X747524Y808099D01*
X745869Y809754D01*
X743841Y810924D01*
X741580Y811530D01*
X739240D01*
X736979Y810924D01*
X734951Y809754D01*
X733296Y808099D01*
X732126Y806071D01*
X731520Y803810D01*
Y801470D01*
X732126Y799209D01*
X733296Y797181D01*
X734951Y795526D01*
X736979Y794356D01*
X739240Y793750D01*
X741580D01*
X743841Y794356D01*
X745869Y795526D01*
X747524Y797181D01*
X748432Y798755D01*
X799697D01*
X800606Y797181D01*
X802261Y795526D01*
X804289Y794356D01*
X806550Y793750D01*
X808890D01*
X811151Y794356D01*
X813179Y795526D01*
X814834Y797181D01*
X816004Y799209D01*
X816610Y801470D01*
Y803810D01*
X816004Y806071D01*
X814834Y808099D01*
X813179Y809754D01*
X811151Y810924D01*
X808890Y811530D01*
D02*
G37*
G36*
X605611Y793370D02*
X603429D01*
X601320Y792805D01*
X599430Y791714D01*
X597886Y790170D01*
X596795Y788280D01*
X596230Y786171D01*
Y783989D01*
X596795Y781880D01*
X597886Y779990D01*
X599430Y778446D01*
X601320Y777355D01*
X603429Y776790D01*
X605611D01*
X607720Y777355D01*
X609610Y778446D01*
X611154Y779990D01*
X612245Y781880D01*
X612810Y783989D01*
Y786171D01*
X612245Y788280D01*
X611154Y790170D01*
X609610Y791714D01*
X607720Y792805D01*
X605611Y793370D01*
D02*
G37*
G36*
X611317Y749640D02*
X607883D01*
X604567Y748751D01*
X601593Y747035D01*
X599165Y744607D01*
X597449Y741633D01*
X596560Y738317D01*
Y734883D01*
X597449Y731567D01*
X599165Y728593D01*
X601593Y726165D01*
X604567Y724449D01*
X607883Y723560D01*
X611317D01*
X614633Y724449D01*
X617607Y726165D01*
X620035Y728593D01*
X621751Y731567D01*
X622640Y734883D01*
Y738317D01*
X621751Y741633D01*
X620035Y744607D01*
X617607Y747035D01*
X614633Y748751D01*
X611317Y749640D01*
D02*
G37*
G36*
X608330Y698840D02*
X596560D01*
Y687070D01*
X608330D01*
Y698840D01*
D02*
G37*
G36*
Y684530D02*
X596560D01*
Y672760D01*
X608330D01*
Y684530D01*
D02*
G37*
G36*
X839456Y669940D02*
X836944D01*
X834518Y669290D01*
X832342Y668034D01*
X830566Y666258D01*
X829310Y664082D01*
X828660Y661656D01*
Y659144D01*
X829250Y656943D01*
X825781Y653475D01*
X796940D01*
Y669940D01*
X777860D01*
Y653475D01*
X774419D01*
X770950Y656943D01*
X771540Y659144D01*
Y661656D01*
X770890Y664082D01*
X769634Y666258D01*
X767858Y668034D01*
X765682Y669290D01*
X763256Y669940D01*
X760744D01*
X758318Y669290D01*
X756142Y668034D01*
X754366Y666258D01*
X753110Y664082D01*
X752460Y661656D01*
Y659144D01*
X753110Y656718D01*
X754366Y654542D01*
X756142Y652766D01*
X758318Y651510D01*
X760744Y650860D01*
X763256D01*
X765457Y651450D01*
X770063Y646843D01*
X771323Y646001D01*
X772810Y645705D01*
X827390D01*
X828877Y646001D01*
X830137Y646843D01*
X834743Y651450D01*
X836944Y650860D01*
X839456D01*
X841882Y651510D01*
X844058Y652766D01*
X845834Y654542D01*
X847090Y656718D01*
X847740Y659144D01*
Y661656D01*
X847090Y664082D01*
X845834Y666258D01*
X844058Y668034D01*
X841882Y669290D01*
X839456Y669940D01*
D02*
G37*
G36*
X801270Y694690D02*
X798930D01*
X796669Y694084D01*
X794641Y692914D01*
X792986Y691259D01*
X791816Y689231D01*
X791210Y686970D01*
Y684630D01*
X791816Y682369D01*
X792986Y680341D01*
X794641Y678686D01*
X796669Y677516D01*
X798930Y676910D01*
X801270D01*
X803531Y677516D01*
X805559Y678686D01*
X807214Y680341D01*
X807389Y680645D01*
X851831D01*
X861363Y671113D01*
X860877Y669940D01*
X854060D01*
Y650860D01*
X873140D01*
Y669940D01*
X872089D01*
X871837Y671209D01*
X870995Y672469D01*
X856187Y687277D01*
X854927Y688119D01*
X853440Y688415D01*
X808603D01*
X808384Y689231D01*
X807214Y691259D01*
X805559Y692914D01*
X803531Y694084D01*
X801270Y694690D01*
D02*
G37*
%LPD*%
D13*
X816610Y896620D02*
Y934720D01*
X800100Y685800D02*
X801370Y684530D01*
X853440D01*
X772810Y649590D02*
X827390D01*
X762000Y660400D02*
X772810Y649590D01*
X827390D02*
X838200Y660400D01*
X646430Y690880D02*
Y815340D01*
X609600Y685800D02*
X613410Y681990D01*
X637540D01*
X646430Y690880D01*
X695960Y942340D02*
X698500Y944880D01*
X806450D01*
X816610Y934720D01*
X675702Y942340D02*
X695960D01*
X816610Y896620D02*
X822960D01*
X791210D02*
X816610D01*
X853440Y684530D02*
X868248Y669722D01*
Y665048D02*
Y669722D01*
X863600Y660400D02*
X868248Y665048D01*
X646430Y815340D02*
X656590Y825500D01*
X694472D01*
X695960Y826988D01*
Y843280D01*
X692150Y839470D02*
X695960Y843280D01*
X656475Y839470D02*
X692150D01*
X643774Y852170D02*
X656475Y839470D01*
X606010Y852170D02*
X643774D01*
X604520Y850680D02*
X606010Y852170D01*
X609600Y899160D02*
X632522D01*
X675702Y942340D01*
X604520Y894080D02*
X609600Y899160D01*
X740410Y802640D02*
X807720D01*
X604520Y850680D02*
Y894080D01*
X850888Y982975D02*
X861044D01*
Y967740D01*
X850888D01*
X861044Y975358D02*
X855966D01*
X845809Y982975D02*
Y967740D01*
X835653D01*
X830574Y982975D02*
Y967740D01*
X822957D01*
X820417Y970279D01*
Y972818D01*
X822957Y975358D01*
X830574D01*
X822957D01*
X820417Y977897D01*
Y980436D01*
X822957Y982975D01*
X830574D01*
X807722D02*
X812800D01*
X815339Y980436D01*
Y970279D01*
X812800Y967740D01*
X807722D01*
X805182Y970279D01*
Y980436D01*
X807722Y982975D01*
X800104D02*
Y970279D01*
X797565Y967740D01*
X792487D01*
X789947Y970279D01*
Y982975D01*
X784869D02*
Y967740D01*
Y975358D01*
X774712D01*
Y982975D01*
Y967740D01*
X769634Y982975D02*
X764556D01*
X767095D01*
Y967740D01*
X769634D01*
X764556D01*
D38*
X1072650Y896150D02*
D03*
D41*
X604520Y850680D02*
D03*
D42*
Y785080D02*
D03*
D49*
X863600Y660400D02*
D03*
X787400D02*
D03*
D50*
X838200D02*
D03*
X762000D02*
D03*
D51*
X609600Y899160D02*
D03*
Y685800D02*
D03*
D52*
Y949960D02*
D03*
Y736600D02*
D03*
D53*
X695960Y868680D02*
D03*
Y916940D02*
D03*
D54*
Y843280D02*
D03*
Y942340D02*
D03*
D55*
X1066800Y635000D02*
D03*
X558800Y1016000D02*
D03*
X1066800D02*
D03*
X558800Y635000D02*
D03*
D56*
X800100Y685800D02*
D03*
X822960Y896620D02*
D03*
X791210D02*
D03*
X807720Y802640D02*
D03*
X740410D02*
D03*
M02*
