G04*
G04 #@! TF.GenerationSoftware,Altium Limited,Altium Designer,22.5.1 (42)*
G04*
G04 Layer_Color=65535*
%FSLAX44Y44*%
%MOMM*%
G71*
G04*
G04 #@! TF.SameCoordinates,9287F655-407D-451B-87FD-3B832B0CA67E*
G04*
G04*
G04 #@! TF.FilePolarity,Positive*
G04*
G01*
G75*
%ADD10C,0.2000*%
%ADD11C,0.2500*%
%ADD12C,0.4000*%
%ADD13C,0.2540*%
%ADD14C,0.1270*%
%ADD15C,0.0762*%
%ADD16R,0.7778X2.6000*%
D10*
X835102Y649844D02*
G03*
X866391Y649399I15798J10556D01*
G01*
Y671401D02*
G03*
X835102Y670956I-15491J-11001D01*
G01*
X758902Y649844D02*
G03*
X790191Y649399I15798J10556D01*
G01*
Y671401D02*
G03*
X758902Y670956I-15491J-11001D01*
G01*
X678160Y843280D02*
G03*
X678160Y843280I-1000J0D01*
G01*
X715760Y942340D02*
G03*
X715760Y942340I-1000J0D01*
G01*
X956380Y849880D02*
Y883500D01*
Y924000D02*
Y942420D01*
Y849880D02*
X1000150D01*
X956380Y942420D02*
X1095150D01*
X1071150Y849880D02*
X1095150D01*
X694060Y689281D02*
X718180D01*
X694060Y672159D02*
X718180D01*
X874600Y660400D02*
X879600D01*
X877100Y657900D02*
Y662900D01*
X769179Y828940D02*
X782761D01*
X769179Y814440D02*
X782761D01*
X798400Y660400D02*
X803400D01*
X800900Y657900D02*
Y662900D01*
X938560Y719120D02*
X951910D01*
X938560Y693120D02*
Y719120D01*
Y693120D02*
X951910D01*
X938880Y673400D02*
X952230D01*
X938880Y647400D02*
Y673400D01*
Y647400D02*
X952230D01*
X870420Y898900D02*
Y929900D01*
X873420Y898900D02*
Y929900D01*
X870420D02*
X873420D01*
X870420Y898900D02*
X873420D01*
X614520Y799880D02*
Y835880D01*
X594520Y799880D02*
X614520D01*
X594520D02*
Y835880D01*
X614520D01*
X604520D02*
Y840930D01*
Y794830D02*
Y799880D01*
X735901Y747641D02*
X764484D01*
X735901Y725559D02*
X764484D01*
X825200Y727020D02*
Y736020D01*
X851200Y727020D02*
Y736020D01*
X769250Y897449D02*
Y911031D01*
X754750Y897449D02*
Y911031D01*
X1097400Y683300D02*
Y763900D01*
X1041400Y683300D02*
Y704600D01*
X1083400Y763900D02*
X1097400D01*
X1041400Y683300D02*
X1056400D01*
X1041400Y763900D02*
X1056400D01*
X1083400Y683300D02*
X1097400D01*
X1041400Y742600D02*
Y763900D01*
D11*
X910310Y706120D02*
G03*
X910310Y706120I-1250J0D01*
G01*
X910630Y660400D02*
G03*
X910630Y660400I-1250J0D01*
G01*
X885170Y895900D02*
G03*
X885170Y895900I-1250J0D01*
G01*
X1030150Y710600D02*
G03*
X1030150Y710600I-1250J0D01*
G01*
D12*
X611600Y865660D02*
G03*
X611600Y865660I-2000J0D01*
G01*
Y652300D02*
G03*
X611600Y652300I-2000J0D01*
G01*
D13*
X1092200Y736600D02*
Y1041400D01*
X693420Y769620D02*
X706120D01*
X685800D02*
Y777240D01*
Y769620D02*
X693420D01*
X685800Y777240D02*
Y802640D01*
X706120Y769620D02*
Y802640D01*
X685800D02*
X706120D01*
X533400Y609600D02*
X1092200D01*
X533400D02*
Y1041400D01*
X1092200Y609600D02*
Y736600D01*
X533400Y1041400D02*
X1092200D01*
X632461Y642617D02*
X627383D01*
X629922D01*
Y629922D01*
X627383Y627383D01*
X624843D01*
X622304Y629922D01*
X647696Y642617D02*
X642617Y640078D01*
X637539Y635000D01*
Y629922D01*
X640078Y627383D01*
X645157D01*
X647696Y629922D01*
Y632461D01*
X645157Y635000D01*
X637539D01*
X617221Y998217D02*
X612142D01*
X614682D01*
Y985522D01*
X612142Y982982D01*
X609603D01*
X607064Y985522D01*
X632456Y998217D02*
X622299D01*
Y990600D01*
X627378Y993139D01*
X629917D01*
X632456Y990600D01*
Y985522D01*
X629917Y982982D01*
X624838D01*
X622299Y985522D01*
X825503Y925827D02*
Y913132D01*
X828043Y910592D01*
X833121D01*
X835660Y913132D01*
Y925827D01*
X840738Y910592D02*
X845817D01*
X843278D01*
Y925827D01*
X840738Y923288D01*
X703584Y716283D02*
Y731517D01*
X711202D01*
X713741Y728978D01*
Y723900D01*
X711202Y721361D01*
X703584D01*
X708662D02*
X713741Y716283D01*
X726437D02*
Y731517D01*
X718819Y723900D01*
X728976D01*
X702314Y695963D02*
Y711198D01*
X709932D01*
X712471Y708658D01*
Y703580D01*
X709932Y701041D01*
X702314D01*
X707393D02*
X712471Y695963D01*
X717549Y708658D02*
X720088Y711198D01*
X725167D01*
X727706Y708658D01*
Y706119D01*
X725167Y703580D01*
X722627D01*
X725167D01*
X727706Y701041D01*
Y698502D01*
X725167Y695963D01*
X720088D01*
X717549Y698502D01*
X821436Y766826D02*
Y782061D01*
X829053D01*
X831593Y779522D01*
Y774444D01*
X829053Y771904D01*
X821436D01*
X826514D02*
X831593Y766826D01*
X846828D02*
X836671D01*
X846828Y776983D01*
Y779522D01*
X844289Y782061D01*
X839210D01*
X836671Y779522D01*
X563883Y815342D02*
Y830577D01*
X571501D01*
X574040Y828038D01*
Y822960D01*
X571501Y820421D01*
X563883D01*
X568962D02*
X574040Y815342D01*
X579118D02*
X584197D01*
X581658D01*
Y830577D01*
X579118Y828038D01*
X669299Y633727D02*
Y618493D01*
X679456D01*
X694691Y633727D02*
X684534D01*
Y618493D01*
X694691D01*
X684534Y626110D02*
X689613D01*
X699769Y633727D02*
Y618493D01*
X707387D01*
X709926Y621032D01*
Y631188D01*
X707387Y633727D01*
X699769D01*
X725161Y618493D02*
X715004D01*
X725161Y628649D01*
Y631188D01*
X722622Y633727D01*
X717543D01*
X715004Y631188D01*
X871228Y641348D02*
Y626113D01*
X881385D01*
X896620Y641348D02*
X886463D01*
Y626113D01*
X896620D01*
X886463Y633730D02*
X891542D01*
X901698Y641348D02*
Y626113D01*
X909316D01*
X911855Y628652D01*
Y638808D01*
X909316Y641348D01*
X901698D01*
X916933Y626113D02*
X922012D01*
X919473D01*
Y641348D01*
X916933Y638808D01*
X985521Y1009648D02*
X980443D01*
X982982D01*
Y996952D01*
X980443Y994413D01*
X977903D01*
X975364Y996952D01*
X998217Y994413D02*
Y1009648D01*
X990599Y1002030D01*
X1000756D01*
X1019100Y768118D02*
X1014022D01*
X1016561D01*
Y755422D01*
X1014022Y752883D01*
X1011482D01*
X1008943Y755422D01*
X1024178Y752883D02*
X1029257D01*
X1026718D01*
Y768118D01*
X1024178Y765578D01*
X982984Y668018D02*
Y652783D01*
X990602D01*
X993141Y655322D01*
Y665478D01*
X990602Y668018D01*
X982984D01*
X1008376Y652783D02*
X998219D01*
X1008376Y662939D01*
Y665478D01*
X1005837Y668018D01*
X1000758D01*
X998219Y665478D01*
X980443Y713737D02*
Y698503D01*
X988061D01*
X990600Y701042D01*
Y711198D01*
X988061Y713737D01*
X980443D01*
X995678Y698503D02*
X1000757D01*
X998218D01*
Y713737D01*
X995678Y711198D01*
X784861Y919478D02*
X782322Y922018D01*
X777243D01*
X774704Y919478D01*
Y909322D01*
X777243Y906783D01*
X782322D01*
X784861Y909322D01*
X800096Y906783D02*
X789939D01*
X800096Y916939D01*
Y919478D01*
X797557Y922018D01*
X792478D01*
X789939Y919478D01*
X782320Y849628D02*
X779781Y852168D01*
X774703D01*
X772163Y849628D01*
Y839472D01*
X774703Y836933D01*
X779781D01*
X782320Y839472D01*
X787398Y836933D02*
X792477D01*
X789938D01*
Y852168D01*
X787398Y849628D01*
X730253Y784858D02*
X727713Y787398D01*
X722635D01*
X720096Y784858D01*
Y782319D01*
X722635Y779780D01*
X727713D01*
X730253Y777241D01*
Y774702D01*
X727713Y772162D01*
X722635D01*
X720096Y774702D01*
X745488Y787398D02*
X740409D01*
X742948D01*
Y774702D01*
X740409Y772162D01*
X737870D01*
X735331Y774702D01*
X750566Y772162D02*
X755644D01*
X753105D01*
Y787398D01*
X750566Y784858D01*
X726441Y863597D02*
X721363D01*
X723902D01*
Y850902D01*
X721363Y848363D01*
X718823D01*
X716284Y850902D01*
X731519Y861058D02*
X734058Y863597D01*
X739137D01*
X741676Y861058D01*
Y858519D01*
X739137Y855980D01*
X736598D01*
X739137D01*
X741676Y853441D01*
Y850902D01*
X739137Y848363D01*
X734058D01*
X731519Y850902D01*
X693421Y977897D02*
X688343D01*
X690882D01*
Y965202D01*
X688343Y962663D01*
X685803D01*
X683264Y965202D01*
X708656Y962663D02*
X698499D01*
X708656Y972819D01*
Y975358D01*
X706117Y977897D01*
X701038D01*
X698499Y975358D01*
D14*
X564600Y873760D02*
X654600D01*
Y975360D01*
X564600D02*
X654600D01*
X564600Y873760D02*
Y975360D01*
X683260Y831830D02*
Y880130D01*
X708660D01*
Y831830D02*
Y880130D01*
X683260Y831830D02*
X708660D01*
Y905490D02*
Y953790D01*
X683260Y905490D02*
X708660D01*
X683260D02*
Y953790D01*
X708660D01*
X564600Y660400D02*
Y762000D01*
X654600D01*
Y660400D02*
Y762000D01*
X564600Y660400D02*
X654600D01*
D15*
X678186Y811656D02*
X677551Y812290D01*
X676281D01*
X675647Y811656D01*
Y811021D01*
X676281Y810386D01*
X677551D01*
X678186Y809751D01*
Y809116D01*
X677551Y808482D01*
X676281D01*
X675647Y809116D01*
X681994Y812290D02*
X680725D01*
X681360D01*
Y809116D01*
X680725Y808482D01*
X680090D01*
X679455Y809116D01*
X683264Y811021D02*
Y809116D01*
X683899Y808482D01*
X685803D01*
Y811021D01*
X687073Y808482D02*
Y811021D01*
X687708D01*
X688342Y810386D01*
Y808482D01*
Y810386D01*
X688977Y811021D01*
X689612Y810386D01*
Y808482D01*
X690882Y807212D02*
Y811021D01*
X692786D01*
X693421Y810386D01*
Y809116D01*
X692786Y808482D01*
X690882D01*
X696595D02*
X695325D01*
X694690Y809116D01*
Y810386D01*
X695325Y811021D01*
X696595D01*
X697230Y810386D01*
Y809751D01*
X694690D01*
X698499Y811021D02*
Y808482D01*
Y809751D01*
X699134Y810386D01*
X699769Y811021D01*
X700404D01*
X702308Y811656D02*
X702943Y812290D01*
X704212D01*
X704847Y811656D01*
Y811021D01*
X704212Y810386D01*
X703578D01*
X704212D01*
X704847Y809751D01*
Y809116D01*
X704212Y808482D01*
X702943D01*
X702308Y809116D01*
X706117Y807212D02*
Y811021D01*
X708021D01*
X708656Y810386D01*
Y809116D01*
X708021Y808482D01*
X706117D01*
X710560D02*
X711830D01*
X712465Y809116D01*
Y810386D01*
X711830Y811021D01*
X710560D01*
X709926Y810386D01*
Y809116D01*
X710560Y808482D01*
X713734D02*
X715639D01*
X716273Y809116D01*
X715639Y809751D01*
X714369D01*
X713734Y810386D01*
X714369Y811021D01*
X716273D01*
D16*
X942490Y706088D02*
D03*
X942810Y660393D02*
D03*
M02*
